<svg xmlns="http://www.w3.org/2000/svg" xmlns:xlink="http://www.w3.org/1999/xlink" width="208.86" height="173.78" viewBox="0 0 208.86 173.78"><defs><style>.cls-1{fill:none;}.cls-2{clip-path:url(#clip-path);}.cls-3{fill:url(#Sfumatura_senza_nome_39);}.cls-4{fill:#fff;}.cls-5{fill:#deeef9;}</style><clipPath id="clip-path" transform="translate(0 -0.46)"><path class="cls-1" d="M2.45,136.92V19.19A19.19,19.19,0,0,1,21.64,0H166.7a19.19,19.19,0,0,1,17.81,12.05l23.58,58.87a19.23,19.23,0,0,1,0,14.27l-23.58,58.87a19.19,19.19,0,0,1-17.81,12.05H21.64A19.19,19.19,0,0,1,2.45,136.92Z"/></clipPath><linearGradient id="Sfumatura_senza_nome_39" x1="3.06" y1="78.05" x2="208.86" y2="78.05" gradientUnits="userSpaceOnUse"><stop offset="0" stop-color="#2eafff"/><stop offset="1" stop-color="#505dde"/></linearGradient></defs><title>logo_2</title><g id="Livello_2" data-name="Livello 2"><g id="Livello_2-2" data-name="Livello 2"><g class="cls-2"><path class="cls-3" d="M3.06,136.58v-117A19.07,19.07,0,0,1,22.13.46H166.34a19.07,19.07,0,0,1,17.71,12L207.49,71a19.12,19.12,0,0,1,0,14.19l-23.44,58.52a19.07,19.07,0,0,1-17.71,12H22.13A19.07,19.07,0,0,1,3.06,136.58Z" transform="translate(0 -0.46)"/><path class="cls-4" d="M43.33,167.05,0,166.72s2-33.78,2.1-40.9c.25-30.13,16.32-41.27,20.19-47.14,9-13.61,11.6-20.76,18.88-26.5,9.5-7.5,20-6.25,29.16-9.13,4.12-1.29,8.53-7,19.09-6.25s19.25,10,29.91,13.92c7.28,2.67,40.77,16,43.79,20.55C166.9,77,166,90.14,163,93.72c-9.21,11.08-80.83,1.46-94,4-27.21,5.25-46.08,54.46-9.08,57.93ZM85.12,48.56A13.59,13.59,0,0,0,85,50.49a13.05,13.05,0,0,0,24.44,6.37C102.73,50.3,94.46,48,85.12,48.56Z" transform="translate(0 -0.46)"/><path class="cls-5" d="M32.27,158.55c-16.5-50.16,17.83-52.83,20.62-79.5C51.14,99.43,69,97.72,69,97.72c-27.21,5.25-46.08,54.46-9.08,57.93C59.92,155.65,44.41,195.47,32.27,158.55Z" transform="translate(0 -0.46)"/></g></g></g></svg>