<svg xmlns="http://www.w3.org/2000/svg" xmlns:xlink="http://www.w3.org/1999/xlink" width="208.86" height="173.78" viewBox="0 0 208.86 173.78"><defs><style>.cls-1{fill:url(#Sfumatura_senza_nome_14);}.cls-2{clip-path:url(#clip-path);}.cls-3{fill:#fff;}.cls-4{fill:#deeef9;}</style><linearGradient id="Sfumatura_senza_nome_14" x1="3.06" y1="77.6" x2="208.86" y2="77.6" gradientUnits="userSpaceOnUse"><stop offset="0" stop-color="#3c90f7"/><stop offset="1" stop-color="#505dde"/></linearGradient><clipPath id="clip-path"><path class="cls-1" d="M3.06,136.12v-117A19.07,19.07,0,0,1,22.13,0H166.34a19.07,19.07,0,0,1,17.71,12l23.44,58.53a19.1,19.1,0,0,1,0,14.18l-23.44,58.53a19.09,19.09,0,0,1-17.71,12H22.13A19.07,19.07,0,0,1,3.06,136.12Z"/></clipPath></defs><title>logo</title><g id="Livello_2" data-name="Livello 2"><g id="Livello_2-2" data-name="Livello 2"><path class="cls-1" d="M3.06,136.12v-117A19.07,19.07,0,0,1,22.13,0H166.34a19.07,19.07,0,0,1,17.71,12l23.44,58.53a19.1,19.1,0,0,1,0,14.18l-23.44,58.53a19.09,19.09,0,0,1-17.71,12H22.13A19.07,19.07,0,0,1,3.06,136.12Z"/><g class="cls-2"><path class="cls-3" d="M43.33,166.6,0,166.26s2-33.77,2.1-40.9C2.35,95.24,18.42,84.1,22.29,78.22c9-13.6,11.6-20.75,18.88-26.5,9.5-7.5,20-6.25,29.16-9.12,4.12-1.29,8.53-7.05,19.09-6.25s19.25,10,29.91,13.91c7.28,2.68,40.77,16,43.79,20.56,3.78,5.75,2.85,18.87-.12,22.44-9.21,11.09-80.83,1.47-94,4-27.21,5.24-46.08,54.45-9.08,57.93ZM85.12,48.1A13.7,13.7,0,0,0,85,50a13.05,13.05,0,0,0,24.44,6.38C102.73,49.85,94.46,47.55,85.12,48.1Z"/><path class="cls-4" d="M32.27,158.1c-16.5-50.17,17.83-52.84,20.62-79.5C51.14,99,69,97.27,69,97.27c-27.21,5.24-46.08,54.45-9.08,57.93C59.92,155.2,44.41,195,32.27,158.1Z"/></g></g></g></svg>