<svg xmlns="http://www.w3.org/2000/svg" xmlns:xlink="http://www.w3.org/1999/xlink" width="839.54" height="173.78" viewBox="0 0 839.54 173.78"><defs><style>.cls-1{fill:none;}.cls-2{fill:gray;}.cls-3{clip-path:url(#clip-path);}.cls-4{fill:url(#Sfumatura_senza_nome_39);}.cls-5{fill:#fff;}.cls-6{fill:#deeef9;}</style><clipPath id="clip-path" transform="translate(0 -0.46)"><path class="cls-1" d="M2.45,136.92V19.19A19.19,19.19,0,0,1,21.64,0H166.7a19.19,19.19,0,0,1,17.81,12.05l23.58,58.87a19.23,19.23,0,0,1,0,14.27l-23.58,58.87a19.19,19.19,0,0,1-17.81,12.05H21.64A19.19,19.19,0,0,1,2.45,136.92Z"/></clipPath><linearGradient id="Sfumatura_senza_nome_39" x1="3.06" y1="78.05" x2="208.86" y2="78.05" gradientUnits="userSpaceOnUse"><stop offset="0" stop-color="#2eafff"/><stop offset="1" stop-color="#505dde"/></linearGradient></defs><title>logo_3</title><g id="Livello_2" data-name="Livello 2"><g id="Livello_2-2" data-name="Livello 2"><path class="cls-2" d="M357.24,43.45l-26,60H317.53l-25.9-60h15L324.9,86.33l18.53-42.88Z" transform="translate(0 -0.46)"/><path class="cls-2" d="M402.77,84.19h-34.9A10.84,10.84,0,0,0,372.33,91a14.75,14.75,0,0,0,8.75,2.49,17.74,17.74,0,0,0,6.38-1.07A15.6,15.6,0,0,0,392.65,89l7.12,7.72q-6.51,7.46-19,7.46a30.08,30.08,0,0,1-13.8-3,22.27,22.27,0,0,1-9.27-8.44,23.3,23.3,0,0,1-3.26-12.27,23.63,23.63,0,0,1,3.22-12.22,22.53,22.53,0,0,1,8.83-8.49,27.4,27.4,0,0,1,24.83-.13,21.36,21.36,0,0,1,8.62,8.37A24.87,24.87,0,0,1,403,80.58C403,80.76,402.94,82,402.77,84.19Zm-31.3-14.84a10.92,10.92,0,0,0-3.77,7h22.72a11,11,0,0,0-3.77-7,11.29,11.29,0,0,0-7.55-2.61A11.54,11.54,0,0,0,371.47,69.35Z" transform="translate(0 -0.46)"/><path class="cls-2" d="M412,39.85h13.38v63.63H412Z" transform="translate(0 -0.46)"/><path class="cls-2" d="M446.64,101.12a22.55,22.55,0,0,1-9.05-8.44,24.7,24.7,0,0,1,0-24.53,22.64,22.64,0,0,1,9.05-8.45,27.67,27.67,0,0,1,13.08-3,27.38,27.38,0,0,1,13,3,22.79,22.79,0,0,1,9,8.45,24.7,24.7,0,0,1,0,24.53,22.7,22.7,0,0,1-9,8.44,27.39,27.39,0,0,1-13,3A27.67,27.67,0,0,1,446.64,101.12Zm21.52-11.4q3.31-3.48,3.31-9.31c0-3.88-1.1-7-3.31-9.3a11.11,11.11,0,0,0-8.44-3.47,11.26,11.26,0,0,0-8.49,3.47,12.84,12.84,0,0,0-3.35,9.3,12.87,12.87,0,0,0,3.35,9.31,11.3,11.3,0,0,0,8.49,3.47A11.14,11.14,0,0,0,468.16,89.72Z" transform="translate(0 -0.46)"/><path class="cls-2" d="M503,101.12a22.74,22.74,0,0,1-9.17-8.44,23.27,23.27,0,0,1,9.17-33,28.39,28.39,0,0,1,13.25-3,25.68,25.68,0,0,1,12.74,3,18,18,0,0,1,7.93,8.71L526.52,74q-3.6-6.35-10.37-6.34a11.71,11.71,0,0,0-8.66,3.43q-3.44,3.42-3.44,9.34t3.44,9.35a11.71,11.71,0,0,0,8.66,3.43q6.86,0,10.37-6.35L536.9,92.5a18.44,18.44,0,0,1-7.93,8.58,25.38,25.38,0,0,1-12.74,3.09A28.4,28.4,0,0,1,503,101.12Z" transform="translate(0 -0.46)"/><path class="cls-2" d="M545.3,48.77a7.28,7.28,0,0,1,0-10.64,8.55,8.55,0,0,1,6-2.14,8.71,8.71,0,0,1,6,2.06,6.61,6.61,0,0,1,2.32,5.14,7.28,7.28,0,0,1-2.32,5.53,8.38,8.38,0,0,1-6,2.19A8.51,8.51,0,0,1,545.3,48.77Zm-.68,8.57H558v46.14H544.62Z" transform="translate(0 -0.46)"/><path class="cls-2" d="M589.68,58.37a24.14,24.14,0,0,1,9.4-1.71V69c-1.49-.12-2.49-.17-3-.17q-5.75,0-9,3.21t-3.26,9.65v21.78H570.43V57.34h12.78v6.09A14.94,14.94,0,0,1,589.68,58.37Z" transform="translate(0 -0.46)"/><path class="cls-2" d="M641.87,61.76q5.75,5.1,5.75,15.39v26.33H635.1V97.74q-3.78,6.42-14.07,6.43a21.85,21.85,0,0,1-9.22-1.8,13.72,13.72,0,0,1-6-5,12.93,12.93,0,0,1-2.06-7.2,12,12,0,0,1,4.85-10.12q4.85-3.69,15-3.69h10.64a8.54,8.54,0,0,0-2.66-6.73q-2.66-2.36-8-2.36a23.28,23.28,0,0,0-7.24,1.16,19.2,19.2,0,0,0-6.05,3.13l-4.8-9.35a28.89,28.89,0,0,1,9-4.11,40.15,40.15,0,0,1,10.84-1.46Q636.13,56.66,641.87,61.76ZM630.46,93.58a8.7,8.7,0,0,0,3.78-4.68V84.19h-9.18q-8.23,0-8.23,5.4a4.82,4.82,0,0,0,2,4.07,9.11,9.11,0,0,0,5.54,1.5A11.61,11.61,0,0,0,630.46,93.58Z" transform="translate(0 -0.46)"/><path class="cls-2" d="M698.69,59.62A21.21,21.21,0,0,1,707,67.94a25.1,25.1,0,0,1,3,12.47,25.11,25.11,0,0,1-3,12.48,21.27,21.27,0,0,1-8.27,8.32,23.56,23.56,0,0,1-11.71,3q-8.84,0-13.89-5.58v21.53H659.71V57.34h12.78v5.32q5-6,14.49-6A23.45,23.45,0,0,1,698.69,59.62Zm-5.58,30.1q3.3-3.48,3.3-9.31c0-3.88-1.1-7-3.3-9.3a12,12,0,0,0-16.89,0c-2.21,2.31-3.3,5.42-3.3,9.3s1.09,7,3.3,9.31a12,12,0,0,0,16.89,0Z" transform="translate(0 -0.46)"/><path class="cls-2" d="M748.64,101.25a13.71,13.71,0,0,1-4.85,2.19,24.74,24.74,0,0,1-6,.73q-8.24,0-12.74-4.2t-4.5-12.35v-19h-7.12V58.37h7.12V47.14h13.38V58.37h11.49V68.66H733.89V87.45a6.3,6.3,0,0,0,1.5,4.5,5.54,5.54,0,0,0,4.24,1.58A8.63,8.63,0,0,0,745,91.82Z" transform="translate(0 -0.46)"/><path class="cls-2" d="M763.6,101.12a22.58,22.58,0,0,1-9-8.44,24.7,24.7,0,0,1,0-24.53,22.68,22.68,0,0,1,9-8.45,29.57,29.57,0,0,1,26.12,0,22.7,22.7,0,0,1,9,8.45,24.7,24.7,0,0,1,0,24.53,22.61,22.61,0,0,1-9,8.44,29.49,29.49,0,0,1-26.12,0Zm21.53-11.4q3.3-3.48,3.3-9.31c0-3.88-1.1-7-3.3-9.3a11.13,11.13,0,0,0-8.45-3.47,11.26,11.26,0,0,0-8.49,3.47c-2.23,2.31-3.34,5.42-3.34,9.3s1.11,7,3.34,9.31a11.3,11.3,0,0,0,8.49,3.47A11.16,11.16,0,0,0,785.13,89.72Z" transform="translate(0 -0.46)"/><path class="cls-2" d="M830.15,58.37a24.12,24.12,0,0,1,9.39-1.71V69c-1.48-.12-2.48-.17-3-.17q-5.74,0-9,3.21t-3.26,9.65v21.78H810.9V57.34h12.78v6.09A14.94,14.94,0,0,1,830.15,58.37Z" transform="translate(0 -0.46)"/><g class="cls-3"><path class="cls-4" d="M3.06,136.58v-117A19.07,19.07,0,0,1,22.13.46H166.34a19.07,19.07,0,0,1,17.71,12L207.49,71a19.12,19.12,0,0,1,0,14.19l-23.44,58.52a19.07,19.07,0,0,1-17.71,12H22.13A19.07,19.07,0,0,1,3.06,136.58Z" transform="translate(0 -0.46)"/><path class="cls-5" d="M43.33,167.05,0,166.72s2-33.78,2.1-40.9c.25-30.13,16.32-41.27,20.19-47.14,9-13.61,11.6-20.76,18.88-26.5,9.5-7.5,20-6.25,29.16-9.13,4.12-1.29,8.53-7,19.09-6.25s19.25,10,29.91,13.92c7.28,2.67,40.77,16,43.79,20.55C166.9,77,166,90.14,163,93.72c-9.21,11.08-80.83,1.46-94,4-27.21,5.25-46.08,54.46-9.08,57.93ZM85.12,48.56A13.59,13.59,0,0,0,85,50.49a13.05,13.05,0,0,0,24.44,6.37C102.73,50.3,94.46,48,85.12,48.56Z" transform="translate(0 -0.46)"/><path class="cls-6" d="M32.27,158.55c-16.5-50.16,17.83-52.83,20.62-79.5C51.14,99.43,69,97.72,69,97.72c-27.21,5.25-46.08,54.46-9.08,57.93C59.92,155.65,44.41,195.47,32.27,158.55Z" transform="translate(0 -0.46)"/></g></g></g></svg>